<svg preserveAspectRatio="none" overflow="visible" style="display: block;" width="185.706" height="172.456" viewBox="0 0 185.706 172.456" fill="none" xmlns="http://www.w3.org/2000/svg">
<g id="Group">
<path id="Vector" d="M185.594 15.6743C182.023 27.5885 109.609 30.0039 89.9606 29.9057C77.2101 29.8366 63.7071 29.3499 50.8678 28.2803C43.7214 27.6921 36.4716 26.9091 29.3819 25.8316C26.7042 25.4227 24.6855 25.0799 22.3344 24.6337C21.9758 24.5647 21.6101 24.4974 21.2588 24.4291C17.382 23.6656 13.271 22.7069 9.65266 21.5082C7.79446 20.8939 5.81025 20.1211 4.19894 19.2528C2.4706 18.3191 0.849013 17.1027 0.412755 15.6953C0.338547 15.4497 0.296875 15.2024 0.296875 14.9541V157.493C0.296875 157.741 0.338547 157.989 0.412755 158.233C0.437587 158.316 0.48582 158.396 0.518358 158.478C1.05052 159.795 2.53382 160.893 4.19608 161.79C6.85201 163.222 10.5483 164.413 13.798 165.271C33.1043 170.385 64.3203 172.122 85.2153 172.399C88.1043 172.438 91.4229 172.454 91.5912 172.455C111.636 172.498 179.388 170.08 185.34 158.783C185.37 158.726 185.424 158.672 185.45 158.614C185.49 158.527 185.514 158.437 185.545 158.35C185.561 158.304 185.58 158.258 185.594 158.213C185.651 158.018 185.693 157.822 185.703 157.626C185.705 157.582 185.706 157.538 185.706 157.492V14.9536C185.706 15.1941 185.664 15.4349 185.594 15.6735V15.6743Z" fill="url(#paint0_linear_0_14)"/>
<path id="Vector_2" d="M93.0088 0C144.203 0 185.706 6.70003 185.706 14.9637C185.706 25.0295 144.203 29.9268 93.0088 29.9268C41.8144 29.9268 0.296875 25.0295 0.296875 14.9637C0.296875 6.70003 41.815 0 93.0088 0Z" fill="url(#paint1_linear_0_14)"/>
<path id="Vector_3" d="M92.712 0C143.906 0 185.409 6.47978 185.409 14.4716C185.409 24.2066 143.906 28.9427 92.712 28.9427C41.5176 28.9427 0 24.2066 0 14.4716C0 6.47978 41.5181 0 92.712 0Z" fill="#CDC9F3"/>
</g>
<defs>
<linearGradient id="paint0_linear_0_14" x1="93.0016" y1="14.9536" x2="93.0016" y2="125.717" gradientUnits="userSpaceOnUse">
<stop stop-color="#9087E5"/>
<stop offset="0.5" stop-color="#AFA8EC"/>
<stop offset="1" stop-color="#CDC9F3"/>
</linearGradient>
<linearGradient id="paint1_linear_0_14" x1="93.0016" y1="91.7225" x2="93.0016" y2="2.85271" gradientUnits="userSpaceOnUse">
<stop stop-color="#FFFFA0"/>
<stop offset="0.022" stop-color="#FDF899"/>
<stop offset="0.054" stop-color="#F9E686"/>
<stop offset="0.091" stop-color="#F2C867"/>
<stop offset="0.133" stop-color="#E89F3C"/>
<stop offset="0.161" stop-color="#E1801B"/>
<stop offset="0.334" stop-color="#FFFFA8"/>
<stop offset="0.723" stop-color="#FFFFA8"/>
<stop offset="0.865" stop-color="#FFE481"/>
<stop offset="1" stop-color="#FFCF61"/>
</linearGradient>
</defs>
</svg>
