<svg preserveAspectRatio="none" overflow="visible" style="display: block;" width="20" height="20" viewBox="0 0 20 20" fill="none" xmlns="http://www.w3.org/2000/svg">
<g id="Icons/thumbs-up">
<path id="Vector" d="M5.83333 9.16667L9.16667 1.66667C9.82971 1.66667 10.4656 1.93006 10.9344 2.3989C11.4033 2.86774 11.6667 3.50363 11.6667 4.16667V7.5H16.3833C16.6249 7.49726 16.8642 7.54709 17.0846 7.64601C17.3051 7.74494 17.5013 7.89061 17.6599 8.07293C17.8184 8.25525 17.9354 8.46985 18.0028 8.70188C18.0701 8.9339 18.0863 9.1778 18.05 9.41667L16.9 16.9167C16.8397 17.3141 16.6379 17.6763 16.3316 17.9367C16.0253 18.197 15.6353 18.3379 15.2333 18.3333H5.83333M5.83333 9.16667V18.3333M5.83333 9.16667H3.33333C2.89131 9.16667 2.46738 9.34226 2.15482 9.65482C1.84226 9.96738 1.66667 10.3913 1.66667 10.8333V16.6667C1.66667 17.1087 1.84226 17.5326 2.15482 17.8452C2.46738 18.1577 2.89131 18.3333 3.33333 18.3333H5.83333" stroke-linecap="round" stroke-linejoin="round" stroke="#2FAD2F"/>
</g>
</svg>
