<svg preserveAspectRatio="none" overflow="visible" style="display: block;" width="232.737" height="153.989" viewBox="0 0 232.737 153.989" fill="none" xmlns="http://www.w3.org/2000/svg" xmlns:xlink="http://www.w3.org/1999/xlink">
<g id="Union" filter="url(#filter0_d_0_147)">
<use xlink:href="#stroke0_0_147" fill="url(#paint0_radial_0_147)"/>
<mask id="stroke1_0_147" fill="white">
<use xlink:href="#stroke0_0_147"/>
</mask>
<path d="M197.081 134.388C197.336 133.436 198.315 132.87 199.267 133.126L217.378 137.978C218.33 138.233 218.895 139.213 218.639 140.166C218.384 141.118 217.405 141.683 216.453 141.428L198.343 136.575C197.39 136.319 196.826 135.341 197.081 134.388ZM29.3035 133.122C30.2561 132.866 31.2358 133.432 31.491 134.384C31.7461 135.337 31.1807 136.316 30.2283 136.571L12.118 141.423C11.1655 141.679 10.1867 141.113 9.93147 140.161C9.67635 139.208 10.2417 138.229 11.1942 137.974L29.3035 133.122ZM201.27 121.857L219.858 124.304C220.836 124.433 221.524 125.329 221.395 126.307C221.267 127.285 220.37 127.973 219.392 127.844L200.804 125.397C199.826 125.268 199.138 124.372 199.266 123.394C199.395 122.416 200.293 121.728 201.27 121.857ZM27.2977 121.853C28.2754 121.724 29.1729 122.412 29.3016 123.39C29.4301 124.368 28.7419 125.264 27.7645 125.393L9.17561 127.84C8.19792 127.969 7.30144 127.281 7.17268 126.303C7.04396 125.326 7.73207 124.429 8.70979 124.3L27.2977 121.853ZM26.785 110.419C27.771 110.419 28.5701 111.219 28.5701 112.205C28.57 113.191 27.7709 113.99 26.785 113.99H8.03596C7.04991 113.99 6.25 113.191 6.24983 112.205C6.24983 111.218 7.0498 110.419 8.03596 110.419H26.785ZM220.534 110.419C221.52 110.419 222.32 111.218 222.32 112.205C222.32 113.191 221.52 113.99 220.534 113.99H201.785C200.799 113.99 200 113.191 200 112.205C200 111.219 200.799 110.419 201.785 110.419H220.534ZM219.389 96.565C220.367 96.4363 221.264 97.1246 221.393 98.1021C221.522 99.0797 220.834 99.9771 219.856 100.106L201.267 102.553C200.29 102.682 199.393 101.994 199.264 101.016C199.136 100.038 199.824 99.141 200.802 99.0123L219.389 96.565ZM9.17366 96.5591L27.7615 99.0064C28.7393 99.1351 29.4274 100.033 29.2987 101.01C29.1698 101.988 28.2734 102.676 27.2957 102.547L8.70686 100.1C7.72947 99.9713 7.04131 99.0747 7.16975 98.0972C7.29847 97.1195 8.19593 96.4304 9.17366 96.5591ZM216.45 82.9791C217.402 82.724 218.381 83.2893 218.637 84.2417C218.892 85.1942 218.326 86.1731 217.374 86.4283L199.264 91.2808C198.311 91.5358 197.332 90.9705 197.077 90.0181C196.822 89.0656 197.387 88.0868 198.34 87.8316L216.45 82.9791ZM9.92952 84.2359C10.1848 83.2833 11.1645 82.718 12.117 82.9732L30.2264 87.8257C31.1788 88.0809 31.7441 89.0598 31.4891 90.0123C31.2339 90.9648 30.2551 91.5302 29.3026 91.275L11.1922 86.4224C10.2399 86.1671 9.67436 85.1883 9.92952 84.2359ZM14.4725 70.857C14.8498 69.946 15.8945 69.513 16.8055 69.8902L34.1278 77.065C35.0386 77.4424 35.4707 78.487 35.0936 79.398C34.7162 80.3091 33.6717 80.7422 32.7606 80.3648L15.4393 73.19C14.5282 72.8126 14.0952 71.768 14.4725 70.857ZM211.764 69.8873C212.675 69.5101 213.72 69.9431 214.097 70.8541C214.475 71.765 214.042 72.8097 213.131 73.1871L195.809 80.3619C194.898 80.7393 193.854 80.3062 193.476 79.3951C193.099 78.484 193.531 77.4395 194.442 77.0621L211.764 69.8873ZM20.7176 58.1871C21.2106 57.3331 22.303 57.0398 23.1571 57.5328L39.3944 66.9078C40.248 67.4009 40.5405 68.4924 40.0477 69.3462C39.5546 70.2003 38.4623 70.4936 37.6082 70.0005L21.3719 60.6255C20.518 60.1326 20.2249 59.041 20.7176 58.1871ZM205.41 57.5289C206.264 57.0358 207.356 57.3282 207.849 58.1822C208.342 59.0361 208.05 60.1285 207.196 60.6216L190.959 69.9957C190.105 70.4887 189.012 70.1964 188.519 69.3423C188.026 68.4884 188.319 67.396 189.173 66.9029L205.41 57.5289ZM28.574 46.438C29.1744 45.6557 30.2956 45.5076 31.078 46.108L45.952 57.522C46.7341 58.1224 46.8814 59.2427 46.2811 60.025C45.6808 60.8072 44.5605 60.9551 43.7781 60.355L28.9031 48.941C28.1211 48.3406 27.9739 47.2203 28.574 46.438ZM197.491 46.105C198.273 45.5048 199.394 45.652 199.994 46.4341C200.594 47.2165 200.447 48.3377 199.665 48.938L184.79 60.3511C184.008 60.9513 182.887 60.8042 182.287 60.022C181.687 59.2397 181.834 58.1185 182.616 57.5181L197.491 46.105ZM37.8914 35.8072C38.5887 35.1101 39.7196 35.11 40.4168 35.8072L53.6737 49.065C54.371 49.7623 54.371 50.8931 53.6737 51.5904C52.9764 52.2873 51.8465 52.2873 51.1492 51.5904L37.8914 38.3326C37.1942 37.6352 37.1941 36.5045 37.8914 35.8072ZM188.153 35.8072C188.85 35.1099 189.98 35.11 190.678 35.8072C191.375 36.5045 191.375 37.6352 190.678 38.3326L177.421 51.5894C176.723 52.2867 175.593 52.2867 174.895 51.5894C174.198 50.8921 174.198 49.7613 174.895 49.064L188.153 35.8072ZM177.55 26.8228C178.15 26.0404 179.271 25.8934 180.054 26.4937C180.836 27.0941 180.983 28.2143 180.383 28.9966L168.97 43.8716C168.369 44.6539 167.248 44.801 166.466 44.2007C165.684 43.6004 165.536 42.4801 166.137 41.6978L177.55 26.8228ZM48.5135 26.4927C49.2959 25.8924 50.4171 26.0404 51.0174 26.8228L62.4305 41.6968C63.0308 42.4792 62.8838 43.6004 62.1014 44.2007C61.319 44.801 60.1978 44.653 59.5975 43.8707L48.1844 28.9966C47.5841 28.2143 47.7313 27.0931 48.5135 26.4927ZM165.862 19.2945C166.355 18.4404 167.448 18.1481 168.302 18.6412C169.155 19.1343 169.448 20.2258 168.955 21.0796L159.581 37.3169C159.088 38.171 157.995 38.4633 157.141 37.9703C156.287 37.4772 155.995 36.3849 156.488 35.5308L165.862 19.2945ZM60.2694 18.6392C61.1234 18.1461 62.2157 18.4385 62.7088 19.2925L72.0828 35.5298C72.5758 36.3839 72.2835 37.4762 71.4295 37.9693C70.5755 38.4623 69.4831 38.169 68.9901 37.315L59.616 21.0787C59.123 20.2246 59.4154 19.1323 60.2694 18.6392ZM72.9432 12.3902C73.8542 12.0129 74.8988 12.445 75.2762 13.356L82.451 30.6783C82.8281 31.5893 82.3952 32.6339 81.4842 33.0113C80.5732 33.3884 79.5285 32.9555 79.1512 32.0445L71.9764 14.7232C71.599 13.8121 72.0321 12.7676 72.9432 12.3902ZM153.296 13.355C153.673 12.4441 154.718 12.012 155.629 12.3892C156.54 12.7666 156.973 13.8111 156.596 14.7222L149.421 32.0435C149.043 32.9545 147.999 33.3875 147.088 33.0103C146.177 32.633 145.744 31.5883 146.121 30.6773L153.296 13.355ZM86.326 7.84917C87.2785 7.59415 88.2573 8.15941 88.5125 9.11187L93.3651 27.2212C93.6203 28.1738 93.0549 29.1535 92.1024 29.4087C91.1499 29.6639 90.1712 29.0984 89.9158 28.146L85.0633 10.0357C84.8082 9.08318 85.3735 8.1044 86.326 7.84917ZM140.055 9.10894C140.311 8.15649 141.29 7.59102 142.243 7.84624C143.195 8.1016 143.761 9.08128 143.506 10.0337L138.652 28.1431C138.397 29.0957 137.418 29.661 136.466 29.4058C135.513 29.1505 134.948 28.1717 135.203 27.2193L140.055 9.10894ZM100.184 5.09331C101.162 4.9646 102.06 5.65277 102.188 6.63042L104.636 25.2193C104.764 26.1968 104.076 27.0934 103.098 27.2222C102.121 27.3509 101.223 26.6628 101.095 25.6851L98.6473 7.09624C98.5189 6.11884 99.2071 5.2222 100.184 5.09331ZM128.383 5.09038C129.36 5.21925 130.048 6.11667 129.92 7.09429L127.472 25.6822C127.344 26.6599 126.446 27.349 125.469 27.2203C124.491 27.0914 123.803 26.194 123.931 25.2164L126.379 6.62749C126.508 5.65001 127.405 4.96168 128.383 5.09038ZM114.287 4.16655C115.273 4.16672 116.072 4.96663 116.072 5.95269V24.7007C116.072 25.6868 115.273 26.4867 114.287 26.4869C113.301 26.4869 112.501 25.6869 112.501 24.7007V5.95269C112.501 4.96652 113.301 4.16655 114.287 4.16655Z" stroke-width="4.16655" stroke="#5CE2FF" style="mix-blend-mode:overlay" mask="url(#stroke1_0_147)"/>
</g>
<defs>
<filter id="filter0_d_0_147" x="0" y="0" width="232.737" height="153.989" filterUnits="userSpaceOnUse" color-interpolation-filters="sRGB">
<feFlood flood-opacity="0" result="BackgroundImageFix"/>
<feColorMatrix in="SourceAlpha" type="matrix" values="0 0 0 0 0 0 0 0 0 0 0 0 0 0 0 0 0 0 127 0" result="hardAlpha"/>
<feOffset dx="2.08328" dy="4.16655"/>
<feGaussianBlur stdDeviation="4.16655"/>
<feColorMatrix type="matrix" values="0 0 0 0 0 0 0 0 0 0 0 0 0 0 0 0 0 0 0.25 0"/>
<feBlend mode="normal" in2="BackgroundImageFix" result="effect1_dropShadow_0_147"/>
<feBlend mode="normal" in="SourceGraphic" in2="effect1_dropShadow_0_147" result="shape"/>
</filter>
<radialGradient id="paint0_radial_0_147" cx="0" cy="0" r="1" gradientTransform="matrix(139.285 139.593 -219.642 88.5222 53.571 -1.22422)" gradientUnits="userSpaceOnUse">
<stop stop-color="#FFD6C7"/>
<stop offset="0.237763" stop-color="#FDD4C6"/>
<stop offset="1" stop-color="#19252C"/>
</radialGradient>
<path id="stroke0_0_147" d="M197.081 134.388C197.336 133.436 198.315 132.87 199.267 133.126L217.378 137.978C218.33 138.233 218.895 139.213 218.639 140.166C218.384 141.118 217.405 141.683 216.453 141.428L198.343 136.575C197.39 136.319 196.826 135.341 197.081 134.388ZM29.3035 133.122C30.2561 132.866 31.2358 133.432 31.491 134.384C31.7461 135.337 31.1807 136.316 30.2283 136.571L12.118 141.423C11.1655 141.679 10.1867 141.113 9.93147 140.161C9.67635 139.208 10.2417 138.229 11.1942 137.974L29.3035 133.122ZM201.27 121.857L219.858 124.304C220.836 124.433 221.524 125.329 221.395 126.307C221.267 127.285 220.37 127.973 219.392 127.844L200.804 125.397C199.826 125.268 199.138 124.372 199.266 123.394C199.395 122.416 200.293 121.728 201.27 121.857ZM27.2977 121.853C28.2754 121.724 29.1729 122.412 29.3016 123.39C29.4301 124.368 28.7419 125.264 27.7645 125.393L9.17561 127.84C8.19792 127.969 7.30144 127.281 7.17268 126.303C7.04396 125.326 7.73207 124.429 8.70979 124.3L27.2977 121.853ZM26.785 110.419C27.771 110.419 28.5701 111.219 28.5701 112.205C28.57 113.191 27.7709 113.99 26.785 113.99H8.03596C7.04991 113.99 6.25 113.191 6.24983 112.205C6.24983 111.218 7.0498 110.419 8.03596 110.419H26.785ZM220.534 110.419C221.52 110.419 222.32 111.218 222.32 112.205C222.32 113.191 221.52 113.99 220.534 113.99H201.785C200.799 113.99 200 113.191 200 112.205C200 111.219 200.799 110.419 201.785 110.419H220.534ZM219.389 96.565C220.367 96.4363 221.264 97.1246 221.393 98.1021C221.522 99.0797 220.834 99.9771 219.856 100.106L201.267 102.553C200.29 102.682 199.393 101.994 199.264 101.016C199.136 100.038 199.824 99.141 200.802 99.0123L219.389 96.565ZM9.17366 96.5591L27.7615 99.0064C28.7393 99.1351 29.4274 100.033 29.2987 101.01C29.1698 101.988 28.2734 102.676 27.2957 102.547L8.70686 100.1C7.72947 99.9713 7.04131 99.0746 7.16975 98.0972C7.29847 97.1195 8.19593 96.4304 9.17366 96.5591ZM216.45 82.9791C217.402 82.724 218.381 83.2893 218.637 84.2417C218.892 85.1942 218.326 86.1731 217.374 86.4283L199.264 91.2808C198.311 91.5358 197.332 90.9705 197.077 90.0181C196.822 89.0656 197.387 88.0868 198.34 87.8316L216.45 82.9791ZM9.92952 84.2359C10.1848 83.2833 11.1645 82.718 12.117 82.9732L30.2264 87.8257C31.1788 88.0809 31.7441 89.0598 31.4891 90.0123C31.2339 90.9648 30.2551 91.5302 29.3026 91.275L11.1922 86.4224C10.2399 86.167 9.67436 85.1883 9.92952 84.2359ZM14.4725 70.857C14.8498 69.946 15.8945 69.513 16.8055 69.8902L34.1278 77.065C35.0386 77.4424 35.4707 78.487 35.0936 79.398C34.7162 80.3091 33.6717 80.7422 32.7606 80.3648L15.4393 73.19C14.5282 72.8126 14.0952 71.768 14.4725 70.857ZM211.764 69.8873C212.675 69.5101 213.72 69.9431 214.097 70.8541C214.475 71.765 214.042 72.8097 213.131 73.1871L195.809 80.3619C194.898 80.7393 193.854 80.3062 193.476 79.3951C193.099 78.484 193.531 77.4395 194.442 77.0621L211.764 69.8873ZM20.7176 58.1871C21.2106 57.3331 22.303 57.0398 23.1571 57.5328L39.3944 66.9078C40.248 67.4009 40.5405 68.4924 40.0477 69.3462C39.5546 70.2003 38.4623 70.4936 37.6082 70.0005L21.3719 60.6255C20.518 60.1326 20.2249 59.041 20.7176 58.1871ZM205.41 57.5289C206.264 57.0358 207.356 57.3282 207.849 58.1822C208.342 59.0361 208.05 60.1285 207.196 60.6216L190.959 69.9957C190.105 70.4887 189.012 70.1964 188.519 69.3423C188.026 68.4884 188.319 67.396 189.173 66.9029L205.41 57.5289ZM28.574 46.438C29.1744 45.6557 30.2956 45.5076 31.078 46.108L45.952 57.522C46.7341 58.1224 46.8814 59.2427 46.2811 60.025C45.6808 60.8072 44.5605 60.9551 43.7781 60.355L28.9031 48.941C28.1211 48.3406 27.9739 47.2203 28.574 46.438ZM197.491 46.105C198.273 45.5048 199.394 45.652 199.994 46.4341C200.594 47.2165 200.447 48.3377 199.665 48.938L184.79 60.3511C184.008 60.9513 182.887 60.8042 182.287 60.022C181.687 59.2397 181.834 58.1185 182.616 57.5181L197.491 46.105ZM37.8914 35.8072C38.5887 35.1101 39.7196 35.11 40.4168 35.8072L53.6737 49.065C54.371 49.7623 54.371 50.8931 53.6737 51.5904C52.9764 52.2873 51.8465 52.2873 51.1492 51.5904L37.8914 38.3326C37.1942 37.6352 37.1941 36.5045 37.8914 35.8072ZM188.153 35.8072C188.85 35.11 189.98 35.11 190.678 35.8072C191.375 36.5045 191.375 37.6352 190.678 38.3326L177.421 51.5894C176.723 52.2867 175.593 52.2867 174.895 51.5894C174.198 50.8921 174.198 49.7613 174.895 49.064L188.153 35.8072ZM177.55 26.8228C178.15 26.0404 179.271 25.8934 180.054 26.4937C180.836 27.0941 180.983 28.2143 180.383 28.9966L168.97 43.8716C168.369 44.6539 167.248 44.801 166.466 44.2007C165.684 43.6004 165.536 42.4801 166.137 41.6978L177.55 26.8228ZM48.5135 26.4927C49.2959 25.8924 50.4171 26.0404 51.0174 26.8228L62.4305 41.6968C63.0308 42.4792 62.8838 43.6004 62.1014 44.2007C61.319 44.801 60.1978 44.653 59.5975 43.8707L48.1844 28.9966C47.5841 28.2143 47.7313 27.0931 48.5135 26.4927ZM165.862 19.2945C166.355 18.4404 167.448 18.1481 168.302 18.6412C169.155 19.1343 169.448 20.2258 168.955 21.0796L159.581 37.3169C159.088 38.171 157.995 38.4633 157.141 37.9703C156.287 37.4772 155.995 36.3848 156.488 35.5308L165.862 19.2945ZM60.2694 18.6392C61.1234 18.1461 62.2157 18.4385 62.7088 19.2925L72.0828 35.5298C72.5758 36.3839 72.2835 37.4762 71.4295 37.9693C70.5755 38.4623 69.4831 38.169 68.9901 37.315L59.616 21.0787C59.123 20.2246 59.4154 19.1323 60.2694 18.6392ZM72.9432 12.3902C73.8542 12.0129 74.8988 12.445 75.2762 13.356L82.451 30.6783C82.8281 31.5893 82.3952 32.6339 81.4842 33.0113C80.5732 33.3884 79.5285 32.9555 79.1512 32.0445L71.9764 14.7232C71.599 13.8121 72.0321 12.7676 72.9432 12.3902ZM153.296 13.355C153.673 12.4441 154.718 12.012 155.629 12.3892C156.54 12.7666 156.973 13.8111 156.596 14.7222L149.421 32.0435C149.043 32.9545 147.999 33.3875 147.088 33.0103C146.177 32.633 145.744 31.5883 146.121 30.6773L153.296 13.355ZM86.326 7.84917C87.2785 7.59415 88.2573 8.15941 88.5125 9.11187L93.3651 27.2212C93.6203 28.1738 93.0549 29.1535 92.1024 29.4087C91.1499 29.6639 90.1712 29.0984 89.9158 28.146L85.0633 10.0357C84.8082 9.08318 85.3735 8.1044 86.326 7.84917ZM140.055 9.10894C140.311 8.15649 141.29 7.59102 142.243 7.84624C143.195 8.1016 143.761 9.08128 143.506 10.0337L138.652 28.1431C138.397 29.0957 137.418 29.661 136.466 29.4058C135.513 29.1505 134.948 28.1717 135.203 27.2193L140.055 9.10894ZM100.184 5.09331C101.162 4.9646 102.06 5.65277 102.188 6.63042L104.636 25.2193C104.764 26.1968 104.076 27.0934 103.098 27.2222C102.121 27.3509 101.223 26.6628 101.095 25.6851L98.6473 7.09624C98.5189 6.11884 99.2071 5.2222 100.184 5.09331ZM128.383 5.09038C129.36 5.21925 130.048 6.11667 129.92 7.09429L127.472 25.6822C127.344 26.6599 126.446 27.349 125.469 27.2203C124.491 27.0914 123.803 26.194 123.931 25.2164L126.379 6.62749C126.508 5.65001 127.405 4.96168 128.383 5.09038ZM114.287 4.16655C115.273 4.16672 116.072 4.96663 116.072 5.95269V24.7007C116.072 25.6868 115.273 26.4867 114.287 26.4869C113.301 26.4869 112.501 25.6869 112.501 24.7007V5.95269C112.501 4.96652 113.301 4.16655 114.287 4.16655Z"/>
</defs>
</svg>
